<?xml version="1.0" standalone="no"?>
<!DOCTYPE svg PUBLIC "-//W3C//DTD SVG 20010904//EN"
 "http://www.w3.org/TR/2001/REC-SVG-20010904/DTD/svg10.dtd">
<svg version="1.0" xmlns="http://www.w3.org/2000/svg"
 width="1074.000000pt" height="1074.000000pt" viewBox="0 0 1074.000000 1074.000000"
 preserveAspectRatio="xMidYMid meet">
<metadata>
Created by potrace 1.14, written by Peter Selinger 2001-2017
</metadata>
<g transform="translate(0.000000,1074.000000) scale(0.100000,-0.100000)"
fill="#000000" stroke="none">
<path d="M4288 7895 c-2 -2 -21 -5 -43 -8 -54 -8 -147 -36 -164 -51 -12 -9
-13 -8 -6 4 11 18 -60 -34 -91 -66 -12 -13 -19 -25 -16 -28 3 -3 -1 -6 -8 -6
-7 0 -19 -8 -27 -17 -8 -11 -11 -12 -7 -3 6 12 5 13 -7 3 -8 -6 -32 -14 -54
-18 -22 -4 -45 -8 -51 -9 -7 -1 -18 -7 -26 -14 -8 -6 -17 -9 -21 -6 -3 3 -8
-4 -12 -15 -3 -12 -11 -18 -17 -15 -7 4 -8 2 -4 -4 4 -6 -10 -30 -31 -54 -54
-61 -63 -70 -63 -64 0 3 -11 -5 -24 -17 -43 -40 -76 -66 -76 -59 0 4 -5 -1
-11 -10 -5 -10 -17 -18 -24 -18 -8 0 -15 -5 -15 -11 0 -5 -4 -7 -10 -4 -5 3
-10 1 -10 -5 0 -6 -9 -20 -20 -32 -11 -12 -20 -18 -20 -13 0 6 -12 -7 -27 -28
-14 -20 -33 -37 -41 -37 -9 0 -13 -3 -9 -6 3 -4 -10 -22 -30 -40 -20 -19 -33
-34 -29 -34 4 0 -8 -16 -28 -35 -20 -19 -36 -39 -36 -45 0 -6 -7 -13 -15 -16
-8 -4 -15 -10 -15 -16 0 -5 -6 -15 -12 -23 -7 -7 -22 -25 -33 -41 -11 -15 -28
-35 -37 -43 -10 -9 -18 -21 -18 -28 0 -7 -4 -13 -9 -13 -5 0 -13 -9 -16 -20
-4 -11 -10 -18 -15 -15 -5 3 -11 -4 -15 -15 -3 -11 -11 -20 -16 -20 -6 0 -7
-5 -4 -10 3 -6 -3 -14 -15 -18 -12 -4 -22 -12 -22 -17 -1 -16 -45 -64 -52 -57
-4 3 -4 -2 0 -12 5 -14 4 -17 -4 -12 -7 4 -12 3 -12 -1 0 -5 -29 -39 -65 -76
-36 -37 -65 -72 -65 -78 0 -5 -4 -7 -10 -4 -5 3 -10 2 -10 -4 0 -6 -18 -29
-40 -52 -22 -23 -40 -46 -40 -51 0 -5 -5 -6 -12 -2 -8 5 -9 2 -5 -9 4 -12 1
-17 -10 -17 -9 0 -14 -3 -10 -6 3 -3 -8 -19 -24 -35 -16 -16 -27 -29 -24 -29
4 0 -7 -17 -24 -37 -16 -20 -28 -40 -25 -45 3 -4 1 -8 -4 -8 -12 0 -34 -49
-27 -60 3 -5 -2 -16 -11 -24 -8 -9 -12 -16 -7 -16 4 -1 -3 -10 -16 -20 -13
-11 -19 -20 -15 -20 5 0 -4 -9 -20 -19 -16 -11 -33 -27 -38 -35 -5 -9 -16 -16
-24 -16 -8 0 -12 -5 -9 -10 3 -6 -1 -13 -9 -16 -9 -3 -13 -10 -10 -15 3 -5 -4
-13 -15 -17 -11 -4 -20 -10 -21 -14 -7 -33 -14 -48 -22 -48 -5 0 -6 -4 -3 -10
3 -5 2 -10 -3 -10 -9 0 -26 -55 -23 -72 0 -5 -3 -8 -7 -8 -5 0 -8 -20 -8 -45
1 -25 -3 -45 -9 -45 -7 0 -7 -3 0 -8 6 -4 11 -22 12 -41 1 -19 6 -37 10 -40 4
-3 9 -13 11 -21 2 -8 8 -16 13 -18 5 -2 9 -10 9 -17 0 -8 9 -17 20 -20 11 -4
18 -11 15 -16 -4 -5 1 -9 10 -9 10 0 13 -5 9 -12 -4 -6 -3 -8 3 -5 6 4 23 -6
39 -21 15 -15 24 -21 20 -14 -4 7 13 -1 37 -18 25 -16 50 -30 56 -30 6 0 20
-4 31 -10 11 -5 29 -15 40 -20 12 -6 25 -8 30 -5 6 4 10 1 10 -5 0 -6 5 -8 10
-5 6 3 10 2 10 -3 0 -5 6 -9 13 -10 14 -1 52 -10 52 -12 0 -1 8 -3 18 -5 10
-2 26 -7 35 -11 9 -4 28 -9 42 -11 14 -2 38 -8 54 -13 15 -5 32 -7 37 -4 5 3
9 0 9 -6 0 -6 4 -9 9 -6 4 3 23 1 41 -4 19 -5 48 -11 67 -12 18 -1 33 -6 33
-10 0 -4 11 -3 25 2 14 5 25 6 25 2 0 -8 55 -13 147 -16 29 0 53 -4 53 -8 0
-5 23 -4 40 2 3 1 10 1 15 0 26 -6 153 -5 173 2 14 5 22 4 22 -3 0 -8 4 -8 13
-2 6 6 35 11 62 13 60 3 100 7 100 10 0 1 23 4 50 6 58 6 90 11 90 13 0 3 86
13 127 14 21 1 38 5 38 9 0 6 112 24 138 21 6 0 12 2 12 6 0 4 10 8 23 9 23 1
53 6 102 17 17 3 44 8 62 10 18 2 37 6 43 10 9 6 82 16 138 19 12 0 22 3 22 6
0 3 12 7 28 8 15 1 37 4 50 7 12 3 30 7 40 9 34 7 182 23 255 27 21 1 40 6 43
11 3 4 10 5 16 1 7 -3 32 -8 57 -9 146 -10 201 -20 201 -36 0 -5 4 -7 9 -3 5
3 12 -4 16 -15 4 -11 11 -17 17 -14 7 4 7 0 0 -12 -5 -11 -7 -25 -4 -33 3 -8
0 -11 -7 -7 -6 4 -11 1 -11 -6 0 -8 -13 -32 -30 -55 -16 -22 -27 -43 -23 -47
3 -3 0 -6 -8 -6 -8 0 -19 -10 -24 -22 -6 -13 -17 -22 -24 -20 -7 1 -10 -2 -7
-6 3 -5 -10 -25 -29 -45 -18 -19 -32 -37 -29 -40 3 -3 -4 -8 -15 -12 -12 -3
-21 -14 -21 -22 0 -9 -3 -13 -6 -10 -8 7 -44 -31 -44 -45 0 -5 -4 -6 -10 -3
-5 3 -10 1 -10 -5 0 -6 -4 -8 -10 -5 -5 3 -10 0 -10 -8 0 -16 -70 -56 -87 -50
-7 3 -13 0 -13 -6 0 -6 -8 -11 -18 -11 -11 0 -30 -9 -43 -20 -59 -49 -70 -60
-62 -60 4 -1 -3 -7 -17 -15 -14 -8 -22 -14 -17 -15 4 0 -1 -8 -10 -18 -10 -11
-21 -17 -26 -15 -4 2 -10 -3 -13 -11 -3 -9 -10 -13 -15 -10 -5 3 -9 -3 -9 -12
0 -10 -3 -15 -6 -11 -4 3 -12 1 -20 -6 -30 -27 -43 -37 -50 -37 -3 0 -17 -9
-31 -20 -14 -11 -30 -17 -36 -13 -5 3 -7 1 -3 -5 3 -6 -7 -16 -24 -24 -16 -7
-30 -16 -30 -19 0 -4 -11 -10 -25 -13 -14 -4 -25 -11 -25 -17 0 -6 -4 -7 -10
-4 -5 3 -10 1 -10 -5 0 -6 -4 -9 -9 -6 -5 4 -11 1 -13 -4 -2 -6 -13 -12 -25
-13 -12 0 -20 -4 -18 -8 3 -3 -13 -14 -35 -24 -22 -10 -40 -22 -40 -27 0 -4
-6 -8 -14 -8 -7 0 -24 -8 -37 -19 -13 -10 -30 -16 -38 -13 -8 2 -11 0 -8 -5 6
-9 -60 -48 -75 -45 -5 1 -8 -2 -8 -8 0 -8 -42 -35 -67 -43 -4 -1 -18 -12 -31
-24 -13 -12 -37 -28 -53 -35 -16 -7 -29 -16 -29 -20 0 -5 -6 -8 -14 -8 -8 0
-16 -3 -18 -7 -8 -19 -173 -104 -212 -110 -37 -6 -82 -28 -93 -45 -11 -17 -53
-41 -60 -34 -3 3 -14 1 -24 -4 -12 -7 -20 -6 -25 1 -4 8 -9 7 -15 -2 -6 -9
-12 -10 -16 -4 -5 6 -21 11 -38 12 -58 4 -89 11 -93 21 -2 6 -10 8 -17 6 -9
-4 -16 3 -21 20 -3 14 -10 23 -16 20 -5 -3 -12 3 -15 15 -3 11 -9 18 -14 15
-5 -3 -9 -1 -9 4 0 4 -15 8 -34 8 -19 0 -33 -2 -31 -5 5 -4 -21 -31 -30 -31
-3 0 -19 -14 -35 -30 -16 -17 -26 -30 -22 -30 4 0 -5 -11 -20 -24 -16 -13 -28
-31 -28 -40 0 -9 -4 -16 -10 -16 -5 0 -10 -9 -10 -19 0 -11 -4 -23 -10 -26 -5
-3 -10 -17 -10 -30 0 -13 -5 -27 -11 -31 -8 -4 -7 -9 2 -14 9 -6 10 -12 2 -22
-10 -13 -10 -21 2 -85 3 -18 6 -35 5 -38 0 -3 11 -25 24 -49 14 -24 22 -48 18
-52 -4 -4 -2 -4 4 -1 6 3 17 -5 24 -18 7 -14 17 -25 22 -25 4 0 8 -7 8 -16 0
-8 4 -13 9 -9 5 3 16 -4 25 -16 8 -12 18 -19 23 -16 5 3 16 -3 23 -14 8 -10
19 -19 26 -19 6 0 26 -8 45 -17 19 -10 41 -19 49 -20 64 -13 98 -16 190 -18
58 -1 110 1 115 4 9 5 35 9 75 12 8 1 20 5 25 9 6 4 18 6 28 5 9 -2 17 1 17 6
0 5 9 9 19 9 11 0 23 5 26 11 4 6 14 8 22 5 8 -3 12 -2 9 3 -5 8 19 19 35 17
3 -1 13 6 22 14 34 31 46 40 57 40 5 0 10 5 10 10 0 6 5 10 10 10 10 0 22 8
55 38 8 7 15 11 15 7 0 -3 10 3 22 15 12 11 28 20 35 20 7 0 13 4 13 9 0 5 21
21 48 37 26 15 51 33 55 41 5 7 12 11 18 8 5 -4 9 -1 9 5 0 6 5 8 10 5 6 -4
17 -2 24 4 7 6 21 12 32 14 10 1 24 5 29 8 6 3 34 5 63 4 30 -1 52 2 52 8 0 6
3 7 7 4 3 -4 12 -2 20 4 7 6 13 8 13 3 0 -5 9 6 20 24 11 18 20 39 20 47 0 8
5 15 12 15 6 0 9 3 5 6 -7 7 53 64 68 64 5 0 22 7 38 14 15 8 27 12 27 8 0
-16 88 -16 106 -1 8 6 14 9 14 6 0 -6 34 22 81 65 16 15 29 25 29 22 0 -3 13
4 30 16 16 12 34 18 40 15 5 -3 10 -1 10 4 0 6 3 10 8 10 19 -3 42 2 40 9 -6
16 95 135 106 125 3 -4 6 -1 6 5 0 7 6 12 13 12 18 0 78 30 95 47 8 7 18 11
23 7 5 -3 8 -2 7 3 -2 4 0 10 4 11 11 6 89 75 130 115 21 20 42 37 48 37 5 0
9 3 8 8 -1 4 17 26 40 49 24 24 40 43 36 43 -4 0 3 9 16 20 13 11 20 20 15 20
-4 0 0 11 9 25 9 14 14 30 11 34 -3 5 1 16 9 24 8 8 12 17 9 21 -4 3 -1 6 6 6
7 0 10 4 7 9 -3 5 3 20 14 34 11 14 20 30 20 36 0 7 7 14 15 17 8 4 13 9 10
14 -2 4 5 16 15 28 11 12 20 26 20 32 0 6 7 13 15 16 8 4 13 10 10 14 -2 4 4
15 15 25 11 10 20 24 20 32 0 7 7 16 15 19 8 4 13 10 10 14 -3 5 7 18 22 30
16 12 27 24 26 26 -2 2 -3 5 -2 7 6 19 10 46 10 60 0 9 3 16 7 13 4 -2 7 15 6
37 0 23 2 47 4 54 4 12 34 11 64 -2 9 -4 22 -4 28 0 5 3 10 2 10 -2 0 -5 14
-8 30 -7 17 1 30 -1 30 -4 0 -4 15 -8 33 -9 112 -5 147 -9 147 -17 0 -5 6 -4
13 1 6 6 21 8 32 6 43 -9 201 -8 214 2 12 8 13 7 6 -5 -8 -13 -7 -13 8 -1 12
9 17 10 17 2 0 -7 5 -9 12 -5 6 4 30 8 52 10 43 3 93 9 174 21 26 4 62 7 80 6
17 0 32 4 32 8 0 4 8 6 18 4 9 -1 22 0 27 3 6 4 19 7 30 8 31 2 107 13 135 20
14 3 35 6 48 7 12 1 22 4 22 7 0 3 15 6 33 7 34 2 62 7 112 18 17 4 41 8 55
10 14 2 25 4 25 5 0 3 58 13 145 24 14 2 32 6 40 9 8 4 33 9 55 11 22 3 40 5
40 6 0 2 29 6 110 14 28 3 51 6 53 7 1 1 16 3 32 4 17 1 33 4 38 5 15 5 207 6
217 1 5 -3 25 -6 45 -7 19 -1 35 -3 35 -4 0 -1 13 -4 28 -6 39 -7 67 -34 67
-66 0 -16 -4 -28 -10 -28 -5 0 -7 -6 -4 -13 2 -7 -9 -29 -25 -48 -17 -19 -31
-37 -31 -42 0 -4 -12 -21 -27 -38 -47 -53 -67 -76 -88 -102 -11 -13 -23 -23
-27 -20 -5 2 -8 0 -8 -6 0 -14 -62 -77 -73 -73 -5 1 -11 -7 -14 -18 -3 -11
-12 -20 -19 -20 -8 0 -14 -5 -14 -11 0 -5 -4 -7 -10 -4 -5 3 -10 2 -10 -4 0
-6 -16 -13 -35 -17 -19 -3 -35 -10 -35 -15 0 -5 -3 -8 -7 -8 -23 4 -39 -6 -91
-58 -31 -32 -60 -57 -64 -55 -5 1 -8 -5 -8 -13 0 -8 -5 -15 -11 -15 -7 0 -23
-12 -37 -27 -13 -16 -21 -21 -17 -13 4 9 1 9 -8 -2 -8 -10 -17 -18 -21 -18 -4
0 -16 -9 -28 -20 -12 -11 -28 -20 -35 -20 -7 0 -13 -4 -13 -10 0 -5 -17 -17
-37 -27 -21 -9 -44 -23 -51 -30 -13 -12 -28 -17 -45 -14 -5 1 -6 -3 -2 -9 6
-9 -7 -14 -27 -11 -5 0 -8 -4 -8 -9 0 -6 -7 -10 -15 -10 -8 0 -15 -4 -15 -10
0 -5 -11 -12 -25 -16 -13 -3 -29 -12 -36 -20 -6 -8 -15 -12 -19 -9 -4 3 -13
-2 -20 -10 -7 -8 -19 -15 -26 -15 -8 0 -14 -4 -14 -10 0 -5 -6 -10 -14 -10 -7
0 -25 -9 -40 -21 -14 -11 -26 -17 -26 -13 0 4 -6 0 -12 -9 -7 -9 -20 -17 -28
-19 -14 -3 -20 -7 -54 -35 -8 -7 -19 -13 -24 -13 -4 0 -17 -8 -28 -17 -11 -10
-35 -27 -54 -37 -19 -11 -41 -26 -48 -33 -7 -7 -20 -13 -28 -13 -8 0 -14 -4
-14 -8 0 -12 -149 -84 -177 -86 -13 0 -23 -4 -23 -8 0 -5 -3 -7 -7 -6 -11 3
-51 -20 -74 -43 -11 -11 -24 -17 -29 -14 -4 3 -10 1 -12 -5 -1 -5 -28 -10 -58
-10 -60 -1 -79 2 -97 13 -7 5 -13 4 -13 -2 0 -10 -48 6 -60 20 -3 3 -13 8 -22
12 -10 3 -18 13 -18 22 0 8 -7 15 -16 15 -8 0 -12 5 -9 10 3 6 -1 10 -9 10 -9
0 -16 5 -16 10 0 13 -64 3 -68 -11 -2 -5 -10 -9 -18 -9 -9 0 -12 -4 -9 -10 3
-5 -1 -10 -10 -10 -9 0 -14 -4 -11 -8 3 -5 -10 -23 -29 -39 -19 -17 -31 -33
-28 -37 4 -3 0 -6 -7 -6 -7 0 -11 -3 -7 -6 3 -3 -3 -14 -14 -25 -11 -11 -17
-24 -14 -29 4 -6 2 -10 -3 -10 -5 0 -9 -7 -10 -15 -1 -8 -3 -22 -4 -30 -1 -8
-4 -15 -8 -15 -10 0 -7 -136 3 -146 4 -4 7 -18 7 -31 0 -13 4 -23 10 -23 5 0
9 -3 8 -7 -3 -16 21 -61 46 -86 14 -14 22 -28 19 -31 -4 -3 1 -6 11 -6 9 0 15
-4 12 -8 -2 -4 9 -14 25 -21 16 -7 26 -17 22 -24 -4 -6 0 -8 10 -4 11 4 17 1
17 -9 0 -8 4 -13 9 -10 4 3 17 -1 27 -9 10 -8 27 -15 37 -15 9 0 17 -4 17 -10
0 -5 3 -9 8 -9 22 4 63 -2 59 -8 -5 -9 238 -7 288 1 36 6 70 14 70 16 0 1 13
4 29 6 35 6 139 54 144 66 2 4 10 8 18 8 8 0 14 5 14 11 0 5 5 7 10 4 6 -3 13
1 16 9 3 9 10 13 15 10 5 -3 12 2 15 10 3 9 10 16 16 16 5 0 16 6 23 13 33 29
45 37 55 37 5 0 10 5 10 11 0 5 4 8 8 5 5 -3 15 4 22 15 8 10 19 19 25 19 6 0
20 8 31 19 11 10 30 22 42 25 13 4 19 12 16 18 -4 6 -3 9 2 5 5 -3 25 3 45 12
19 10 45 17 57 16 11 -1 19 1 17 5 -2 3 22 5 53 5 31 -1 66 5 78 12 11 7 24
10 29 6 4 -5 5 -3 2 3 -4 7 0 17 8 24 7 6 12 17 9 23 -2 7 8 25 23 42 16 16
27 33 26 37 -2 5 4 8 12 8 8 0 15 5 15 10 0 6 9 10 20 10 11 0 20 4 20 9 0 4
11 7 25 6 14 -2 28 1 31 7 4 7 9 7 13 0 8 -14 61 -23 61 -11 0 5 9 9 19 9 11
0 26 8 33 19 7 10 16 19 21 19 8 2 15 7 60 47 15 14 35 25 43 25 8 0 13 4 10
9 -3 4 2 8 12 7 25 -1 82 27 82 41 0 7 5 13 10 13 6 0 10 5 10 11 0 5 13 24
30 42 16 18 30 35 30 38 0 4 12 10 28 15 47 13 73 24 89 38 35 31 43 36 43 30
0 -4 9 4 21 17 12 13 25 23 30 22 5 -2 9 4 9 13 0 8 5 12 10 9 6 -3 10 -1 10
4 0 6 7 11 16 11 8 0 13 4 9 9 -3 5 4 12 15 16 11 3 19 12 17 18 -1 7 3 11 8
10 6 0 21 14 35 33 14 18 30 34 36 34 6 0 17 11 24 25 7 13 17 22 22 19 4 -3
8 0 8 6 0 7 9 24 20 40 11 15 17 30 13 34 -3 3 -1 6 5 6 6 0 9 6 6 14 -3 7 2
21 11 30 9 9 13 16 9 16 -3 0 -1 6 5 13 6 8 8 17 4 20 -3 4 2 7 13 8 10 0 14
3 7 5 -8 4 -6 11 8 25 10 10 19 26 19 34 0 8 7 15 16 15 9 0 12 5 8 12 -4 6 0
16 8 22 8 6 15 13 15 16 1 16 41 69 48 62 5 -4 5 -2 2 4 -6 11 42 81 65 95 5
3 9 9 9 13 -3 20 0 26 9 21 6 -3 7 1 4 9 -3 9 -1 16 4 16 6 0 9 9 7 20 -2 11
0 20 5 20 5 0 8 13 6 30 -2 16 -1 32 2 35 7 7 9 55 2 55 -3 0 -6 28 -7 63 -5
115 -9 156 -16 163 -4 4 -2 13 4 21 9 10 8 13 -2 13 -11 0 -11 2 1 10 8 5 10
10 3 10 -6 0 -10 11 -8 25 1 14 -2 25 -7 25 -6 0 -7 7 -4 16 3 8 2 13 -3 10
-5 -3 -12 5 -15 19 -4 14 -11 25 -17 25 -6 0 -7 5 -4 10 3 6 1 10 -4 10 -6 0
-11 6 -11 13 0 7 -9 19 -20 27 -11 8 -20 18 -20 22 0 12 -88 98 -99 98 -6 0
-14 6 -18 14 -16 28 -72 47 -116 40 -48 -7 -71 -12 -74 -14 -2 -2 -11 -3 -20
-4 -10 -1 -24 -5 -30 -9 -7 -5 -19 -5 -25 0 -7 4 -17 8 -23 9 -24 5 -65 24
-65 32 0 9 -38 14 -100 14 -59 -1 -100 -6 -100 -12 0 -3 -10 -6 -22 -6 -45 -3
-78 -8 -78 -14 0 -3 -8 -7 -17 -8 -35 -4 -53 -8 -59 -15 -4 -4 -16 -7 -26 -7
-10 0 -18 -5 -18 -11 0 -5 -4 -8 -9 -5 -5 3 -14 -1 -21 -9 -7 -8 -18 -15 -24
-15 -11 0 -70 -47 -117 -92 -10 -9 -20 -14 -23 -11 -3 4 -6 0 -6 -7 0 -7 -3
-10 -7 -7 -3 4 -15 -1 -26 -10 -15 -13 -18 -14 -12 -3 7 12 6 13 -6 3 -27 -22
-86 -13 -119 18 -16 16 -30 26 -30 23 0 -4 -6 -1 -14 6 -8 6 -23 11 -33 10
-10 -1 -22 -1 -28 0 -20 5 -265 5 -265 0 0 -3 -24 -6 -53 -6 -107 -3 -165 -9
-160 -17 2 -4 -6 -5 -19 -4 -13 2 -48 -2 -78 -9 -30 -7 -57 -11 -59 -9 -2 2
-10 -3 -18 -11 -8 -8 -19 -12 -24 -9 -5 4 -9 2 -9 -3 0 -5 -6 -9 -12 -10 -7 0
-32 -3 -55 -6 -23 -3 -45 -1 -48 4 -3 5 -11 7 -18 4 -13 -4 -133 17 -144 26
-4 3 -12 5 -55 14 -21 5 -38 11 -38 15 0 3 -17 7 -37 9 -20 1 -42 7 -50 13 -7
6 -13 9 -13 5 0 -4 -13 0 -30 9 -16 9 -30 21 -30 27 0 6 -3 8 -6 5 -9 -9 -43
32 -50 60 -4 13 -3 35 1 50 5 16 9 34 11 42 1 8 7 17 12 20 10 7 26 43 24 54
-1 4 3 7 10 7 6 0 8 3 5 6 -4 4 3 20 14 35 11 16 17 29 12 29 -4 0 -1 5 7 10
8 5 16 14 16 20 1 5 2 15 3 21 0 5 5 8 9 5 5 -3 14 11 21 30 7 19 17 32 22 29
5 -3 6 2 2 11 -4 12 -3 15 5 10 7 -4 12 -1 12 8 0 8 7 22 16 30 8 9 13 16 9
16 -7 0 9 21 50 63 17 17 29 34 27 37 -1 3 9 17 23 32 14 14 25 29 25 33 0 18
150 166 161 159 5 -3 9 0 9 6 0 7 7 10 15 6 8 -3 15 -2 15 3 0 4 6 8 13 8 32
1 72 14 75 23 2 5 8 8 13 4 5 -3 9 0 9 5 0 6 4 10 9 9 11 -4 71 63 71 80 0 7
5 10 12 6 7 -4 8 -3 4 4 -4 7 -4 18 1 25 4 6 9 23 11 37 2 14 7 27 13 28 5 2
9 10 9 18 0 9 5 12 10 9 6 -3 10 1 10 10 0 9 4 14 9 10 5 -3 13 0 16 6 4 5 13
8 21 5 8 -3 14 -2 14 3 0 5 19 12 43 16 53 10 47 8 83 28 17 9 34 13 38 10 3
-4 6 -1 6 5 0 7 3 12 8 11 14 -2 52 14 52 22 0 5 7 5 17 2 11 -4 14 -3 9 5 -6
11 5 17 27 13 4 0 7 3 7 9 0 5 7 10 15 10 8 0 31 11 51 25 20 14 40 22 45 19
5 -3 9 -1 9 4 0 11 60 35 60 24 0 -4 4 -1 9 6 4 7 18 14 29 15 12 1 22 6 22
11 0 5 3 6 7 3 3 -4 12 -2 19 4 8 6 20 9 28 6 8 -3 16 -2 18 4 2 5 18 10 36
12 17 1 32 4 32 7 0 5 23 10 63 13 9 1 17 4 17 7 0 3 8 6 18 7 24 1 117 11
117 13 0 0 25 3 55 5 78 7 91 10 99 24 5 7 11 11 14 9 4 -1 16 5 27 15 16 13
20 27 18 57 -1 22 -6 40 -11 40 -4 0 -6 4 -2 9 3 5 -1 16 -9 24 -8 8 -12 17
-9 21 4 3 1 6 -6 6 -7 0 -10 4 -7 9 4 5 3 11 -2 13 -16 7 -71 86 -65 92 4 4
-1 4 -11 0 -14 -5 -17 -4 -12 4 4 7 3 12 -2 12 -5 0 -15 11 -22 25 -7 14 -20
25 -27 25 -8 0 -12 4 -8 10 3 5 -7 16 -22 24 -15 8 -23 15 -18 16 12 1 -110
61 -133 65 -10 2 -17 4 -17 5 0 2 -34 10 -60 15 -11 2 -20 4 -20 5 0 1 -13 3
-30 6 -16 2 -53 7 -82 12 -44 7 -118 7 -210 0 -13 -1 -23 -6 -23 -12 0 -5 -3
-7 -6 -3 -3 3 -25 0 -49 -8 -24 -7 -46 -10 -49 -7 -4 3 -6 0 -6 -6 0 -7 -9
-12 -20 -12 -11 0 -20 -5 -20 -11 0 -5 -4 -8 -8 -5 -5 3 -32 -20 -60 -50 -29
-30 -57 -52 -62 -49 -6 3 -12 0 -15 -7 -3 -8 -21 -13 -46 -12 -22 0 -42 -3
-45 -8 -3 -4 -12 -8 -21 -8 -16 0 -53 -36 -53 -52 0 -5 -5 -6 -11 -2 -7 4 -10
1 -7 -7 5 -16 -128 -149 -149 -149 -8 0 -12 -4 -8 -9 3 -5 -4 -12 -15 -16 -11
-3 -27 -14 -37 -23 -9 -9 -20 -17 -23 -17 -12 0 -169 -163 -163 -169 4 -3 -1
-6 -10 -6 -10 0 -16 -3 -15 -7 2 -7 -29 -46 -74 -94 -9 -9 -14 -20 -10 -23 3
-3 0 -6 -6 -6 -7 0 -12 -7 -12 -17 0 -9 -3 -13 -6 -10 -8 7 -64 -67 -64 -84 0
-6 -7 -8 -16 -5 -8 3 -12 2 -9 -4 3 -6 1 -10 -4 -10 -6 0 -10 -3 -9 -7 2 -5
-5 -17 -15 -28 -9 -11 -17 -23 -17 -27 0 -5 -18 -26 -40 -48 -22 -22 -37 -40
-32 -40 4 0 -5 -11 -20 -24 -16 -13 -28 -29 -28 -35 0 -7 -4 -9 -10 -6 -5 3
-10 -1 -10 -10 0 -9 -4 -13 -10 -10 -5 3 -10 -1 -10 -10 0 -10 -5 -13 -12 -9
-6 4 -8 3 -5 -3 4 -6 -7 -22 -23 -37 -17 -14 -30 -31 -30 -37 0 -5 -4 -7 -10
-4 -5 3 -10 2 -10 -3 0 -5 -11 -21 -25 -36 -14 -15 -25 -31 -25 -36 0 -5 -7
-7 -15 -4 -9 4 -15 0 -15 -8 0 -12 -24 -43 -83 -108 -8 -8 -27 -34 -42 -57
-15 -24 -32 -43 -37 -43 -5 0 -6 -4 -3 -10 3 -5 1 -10 -4 -10 -6 0 -11 -7 -11
-15 0 -8 -5 -15 -11 -15 -6 0 -9 -6 -6 -14 3 -8 0 -17 -7 -19 -8 -3 -12 -17
-11 -30 2 -16 -3 -28 -12 -32 -9 -3 -13 -8 -11 -11 7 -7 -88 -104 -101 -104
-6 0 -11 -7 -11 -15 0 -8 -9 -19 -20 -25 -11 -6 -19 -15 -17 -21 1 -6 -8 -13
-20 -15 -13 -2 -23 0 -23 4 0 9 -11 10 -92 15 -32 1 -58 0 -58 -4 0 -4 -8 -6
-17 -4 -10 1 -22 0 -28 -3 -5 -4 -23 -7 -40 -8 -16 -1 -30 -3 -30 -4 0 -2 -37
-11 -52 -12 -7 -1 -13 -5 -13 -10 0 -5 -4 -7 -10 -3 -5 3 -17 1 -27 -4 -10 -6
-36 -18 -58 -27 -22 -10 -43 -23 -47 -28 -4 -6 -8 -7 -8 -2 0 5 -11 -3 -25
-18 -14 -15 -25 -24 -25 -20 0 4 -8 -3 -19 -14 -10 -12 -23 -22 -30 -22 -6 0
-11 -4 -11 -8 0 -10 -50 -37 -62 -34 -5 1 -8 -2 -8 -7 0 -5 -23 -8 -51 -7 -36
1 -54 6 -63 19 -7 9 -19 17 -25 17 -7 0 -9 5 -6 10 5 8 -38 15 -48 8 -2 -2
-10 2 -18 8 -31 24 -554 -7 -619 -37 -3 -1 -9 -3 -15 -4 -5 -2 -13 -4 -17 -5
-5 -1 -11 -3 -15 -4 -5 -1 -17 -7 -29 -13 -22 -12 -28 -13 -104 -14 -42 -1
-67 2 -130 17 -14 3 -36 8 -50 11 -14 2 -29 8 -35 14 -5 5 -21 9 -35 9 -15 0
-30 3 -34 7 -3 4 -17 8 -29 10 -12 2 -29 6 -37 10 -8 3 -24 8 -35 10 -11 2
-25 10 -31 18 -6 8 -13 12 -16 9 -8 -8 -59 56 -52 67 3 5 0 9 -6 9 -6 0 -8 11
-4 28 3 15 6 35 7 45 1 9 4 17 8 17 4 0 13 16 19 35 7 22 16 33 23 28 7 -3 9
-3 5 2 -4 4 -3 14 3 22 6 7 8 13 4 13 -5 0 0 9 10 20 10 11 15 20 11 20 -4 0
0 7 8 16 9 8 16 22 16 30 0 8 5 12 10 9 6 -3 10 3 10 14 0 12 5 21 10 21 6 0
10 6 10 13 0 7 10 24 23 37 12 14 23 32 25 40 2 7 12 21 22 30 11 10 18 19 15
22 -2 2 9 19 25 36 16 18 27 32 24 32 -2 0 4 9 14 19 9 11 28 33 42 51 48 60
108 120 119 120 7 0 10 3 8 8 -3 4 1 13 9 20 8 7 14 10 14 6 0 -3 7 -1 15 6 8
7 32 14 52 17 21 3 39 9 41 13 2 5 10 6 18 3 8 -3 14 0 14 6 0 6 5 11 10 11
21 0 86 77 100 120 8 25 14 48 12 53 -1 4 3 7 9 7 5 0 8 4 5 8 -3 5 4 16 16
26 24 21 88 50 88 40 0 -4 7 -1 15 6 8 6 18 9 22 7 5 -3 26 3 48 13 22 11 48
19 58 20 10 0 16 4 13 9 -5 8 26 21 48 20 5 -1 12 5 17 13 5 7 12 14 16 14 26
5 53 18 53 26 0 5 5 6 10 3 6 -3 10 -1 10 6 0 7 3 9 6 6 4 -4 19 2 34 13 15
11 30 17 34 13 3 -3 6 -1 6 6 0 7 5 9 10 6 6 -3 10 -1 10 5 0 6 5 8 10 5 6 -3
10 -2 10 2 0 5 10 9 22 10 11 1 25 8 29 15 5 7 9 10 9 6 0 -4 17 -1 38 7 33
13 142 43 182 50 8 1 33 6 55 10 22 5 54 9 70 11 161 16 156 15 198 32 15 6
27 16 27 22 0 6 5 8 10 5 6 -4 10 -3 9 2 -1 4 -1 10 1 13 7 20 7 60 0 60 -5 0
-7 6 -4 14 3 8 1 17 -5 21 -6 3 -11 15 -11 26 0 11 -4 17 -10 14 -5 -3 -10 2
-10 12 0 10 -9 25 -20 33 -11 8 -20 18 -20 23 0 4 -10 18 -22 31 -54 56 -86
95 -81 99 2 3 -5 8 -16 12 -12 3 -21 10 -21 15 0 5 -15 17 -32 26 -18 9 -36
22 -40 28 -4 6 -8 8 -8 3 0 -4 -16 0 -36 8 -20 8 -48 18 -63 21 -31 7 -104 22
-146 29 -32 6 -173 14 -177 10z"/>
</g>
</svg>
