<?xml version="1.0" standalone="no"?>
<!DOCTYPE svg PUBLIC "-//W3C//DTD SVG 20010904//EN"
 "http://www.w3.org/TR/2001/REC-SVG-20010904/DTD/svg10.dtd">
<svg version="1.0" xmlns="http://www.w3.org/2000/svg"
 width="500.000000pt" height="500.000000pt" viewBox="0 0 500.000000 500.000000"
 preserveAspectRatio="xMidYMid meet">

<g transform="translate(0.000000,500.000000) scale(0.100000,-0.100000)"
fill="#000000" stroke="none">
<path d="M2010 3741 c-386 -171 -666 -518 -750 -930 -25 -124 -27 -347 -5
-477 69 -393 325 -733 703 -933 58 -31 152 -61 152 -48 0 7 -24 21 -52 31
-205 71 -461 277 -589 473 -141 217 -209 444 -209 703 0 336 117 628 347 870
127 134 255 224 420 295 43 19 79 39 81 45 5 15 -6 12 -98 -29z"/>
<path d="M2890 3770 c0 -6 8 -13 18 -17 62 -21 198 -92 271 -140 270 -180 466
-470 537 -795 25 -116 30 -335 10 -459 -64 -387 -306 -727 -648 -912 -46 -25
-107 -53 -135 -63 -29 -10 -53 -24 -53 -31 0 -16 60 5 165 58 293 150 534 426
640 733 84 246 88 544 10 801 -104 344 -389 659 -725 801 -92 38 -90 38 -90
24z"/>
<path d="M2475 3560 c0 -33 4 -50 13 -50 8 0 12 16 12 45 0 25 4 45 8 45 17 0
21 -13 11 -32 -9 -17 -8 -19 8 -16 12 2 18 12 18 28 0 21 -5 25 -35 28 l-35 3
0 -51z"/>
<path d="M2264 3573 c3 -10 8 -34 11 -54 6 -34 8 -36 38 -30 17 4 33 13 35 21
4 12 2 13 -9 3 -24 -23 -37 -14 -43 32 -5 30 -12 45 -22 45 -10 0 -13 -6 -10
-17z"/>
<path d="M2840 3535 c-10 -12 -9 -20 4 -40 9 -13 16 -29 16 -35 0 -17 -28 -11
-39 8 -10 16 -10 16 -11 0 0 -22 45 -35 65 -18 13 11 13 16 0 41 -20 38 -19
42 8 36 21 -6 21 -6 3 8 -25 19 -31 19 -46 0z"/>
<path d="M2070 3465 c0 -30 5 -55 10 -55 6 0 10 9 10 19 0 24 19 31 42 17 9
-6 20 -7 24 -3 7 7 -64 76 -78 77 -5 0 -8 -25 -8 -55z"/>
<path d="M3016 3420 c-28 -43 -26 -79 3 -41 14 19 19 20 35 8 16 -12 17 -15 3
-29 -12 -11 -13 -18 -5 -26 9 -9 19 -1 40 31 15 23 28 45 28 50 0 13 -28 7
-34 -8 -6 -17 -15 -19 -36 -5 -12 8 -12 11 3 28 16 17 14 32 -3 32 -4 0 -19
-18 -34 -40z"/>
<path d="M1901 3395 l-2 -40 -19 23 c-34 41 -41 13 -8 -33 21 -29 35 -42 42
-35 6 6 4 15 -5 26 -13 16 -12 17 13 11 14 -4 34 -4 44 0 14 5 11 9 -17 18
-25 9 -36 19 -40 41 -6 26 -7 26 -8 -11z"/>
<path d="M3202 3267 c-42 -43 -30 -55 16 -17 37 30 49 32 39 6 -4 -9 -13 -13
-20 -10 -18 7 -31 -40 -18 -64 8 -14 10 -13 16 10 4 15 16 30 26 33 24 8 24
37 1 58 -24 22 -23 22 -60 -16z"/>
<path d="M1716 3273 c-3 -4 3 -16 15 -29 l20 -22 -45 -6 -45 -7 38 -35 c42
-38 51 -41 51 -19 0 8 -10 20 -22 26 -22 12 -20 13 27 23 l49 11 -40 32 c-23
18 -44 30 -48 26z"/>
<path d="M3360 3105 c-14 -8 -33 -14 -42 -15 -10 0 -18 -5 -18 -10 0 -6 11 -8
26 -4 24 6 25 5 15 -14 -16 -29 -14 -32 16 -32 25 0 25 -1 9 -19 -25 -28 -11
-45 17 -21 12 11 31 26 42 34 19 15 18 15 -23 16 l-42 0 20 40 c22 43 19 47
-20 25z"/>
<path d="M1560 3045 c0 -7 61 -95 66 -95 2 0 1 14 -2 30 -6 25 -3 30 14 30 11
0 22 7 26 15 4 12 -3 15 -33 15 -22 0 -46 3 -55 6 -9 3 -16 3 -16 -1z m50 -35
c0 -5 -2 -10 -4 -10 -3 0 -8 5 -11 10 -3 6 -1 10 4 10 6 0 11 -4 11 -10z"/>
<path d="M2487 2582 c-5 -211 -6 -386 -3 -390 3 -3 8 -3 11 0 3 3 4 178 3 389
l-3 384 -8 -383z"/>
<path d="M1474 2844 c-10 -39 10 -53 47 -31 37 21 57 13 33 -14 -9 -10 -12
-19 -6 -19 20 0 34 38 22 60 -6 11 -14 20 -19 20 -5 0 -20 -9 -34 -20 -33 -26
-40 -25 -33 5 4 14 4 25 1 25 -2 0 -8 -12 -11 -26z"/>
<path d="M3405 2859 c4 -5 12 -9 20 -9 18 0 27 -28 11 -37 -7 -5 -11 -16 -7
-25 5 -14 13 -10 48 23 39 36 41 39 20 43 -58 12 -97 14 -92 5z m70 -19 c-3
-5 -10 -10 -16 -10 -5 0 -9 5 -9 10 0 6 7 10 16 10 8 0 12 -4 9 -10z"/>
<path d="M2854 2841 c-36 -16 -74 -70 -74 -106 0 -56 20 -83 104 -141 99 -68
126 -99 126 -141 0 -49 -36 -84 -93 -90 -90 -10 -157 43 -157 123 0 25 5 54
11 66 6 11 8 22 6 25 -12 11 -39 -62 -39 -105 0 -168 270 -203 351 -45 17 32
13 101 -6 135 -10 17 -63 61 -120 99 -90 61 -103 73 -103 98 0 16 6 33 13 39
43 35 119 25 146 -19 l19 -31 4 44 c3 24 4 45 2 47 -7 8 -171 10 -190 2z"/>
<path d="M1923 2825 c-44 -19 -66 -57 -66 -113 0 -51 8 -60 143 -159 78 -58
96 -89 80 -138 -30 -90 -182 -86 -232 6 -19 34 -20 80 -2 123 5 13 4 17 -4 12
-19 -11 -35 -81 -28 -120 10 -53 49 -93 109 -111 132 -39 265 47 254 164 -6
57 -29 86 -113 143 -108 75 -134 97 -134 118 0 27 47 60 85 60 37 0 85 -33 85
-58 0 -15 2 -15 10 -2 5 8 10 29 10 46 0 29 -3 32 -37 38 -61 10 -126 6 -160
-9z"/>
<path d="M3235 1928 c-15 -22 -14 -24 22 -55 24 -20 41 -29 47 -23 5 5 8 11 5
13 -42 31 -67 57 -59 62 14 8 30 -3 30 -21 0 -16 55 -20 65 -4 3 6 -5 10 -18
10 -16 0 -26 7 -30 20 -7 27 -42 26 -62 -2z"/>
<path d="M1783 1821 l-33 -38 23 -21 c40 -38 97 -24 97 24 0 21 -35 75 -48 73
-4 0 -22 -18 -39 -38z m62 -21 c0 -27 -34 -53 -54 -41 -11 7 -10 15 9 40 25
36 45 36 45 1z"/>
<path d="M3106 1791 c-17 -18 -16 -21 11 -59 l29 -40 27 20 c15 11 27 24 27
30 0 6 -8 4 -19 -6 -16 -15 -20 -15 -31 -1 -10 12 -9 16 4 21 9 3 13 10 10 16
-3 5 -12 1 -19 -8 -12 -16 -13 -16 -24 4 -9 17 -8 23 6 31 10 6 13 11 7 11 -6
0 -19 -9 -28 -19z"/>
<path d="M1957 1678 l-25 -43 27 -16 c14 -9 30 -14 35 -11 5 3 0 9 -12 13 -14
5 -20 14 -16 24 7 18 16 19 32 3 9 -9 12 -9 12 0 0 7 -4 12 -10 12 -13 0 -13
27 0 35 6 4 17 1 25 -5 8 -7 15 -8 15 -3 0 8 -41 33 -54 33 -2 0 -15 -19 -29
-42z"/>
<path d="M2944 1684 l-22 -15 25 -44 c15 -27 29 -42 37 -39 11 4 8 16 -11 50
-20 36 -22 44 -9 44 9 0 16 -8 16 -20 0 -23 18 -27 26 -5 7 17 -12 45 -30 44
-6 0 -21 -7 -32 -15z"/>
<path d="M2144 1609 c3 -17 6 -43 6 -57 0 -26 0 -26 40 13 22 21 37 41 34 44
-3 3 -17 -7 -30 -24 l-24 -30 0 43 c0 32 -4 42 -16 42 -13 0 -15 -7 -10 -31z"/>
<path d="M2750 1607 c-48 -24 -35 -97 17 -97 62 0 88 61 41 94 -27 19 -26 19
-58 3z m52 -31 c14 -32 4 -56 -22 -56 -23 0 -46 40 -37 64 10 25 46 19 59 -8z"/>
<path d="M2340 1552 c0 -22 -3 -47 -6 -56 -5 -13 1 -16 29 -16 20 0 38 4 41 9
3 4 -6 6 -19 3 -18 -3 -25 0 -25 12 0 9 8 16 20 16 11 0 20 5 20 10 0 6 -5 9
-12 8 -6 -2 -14 6 -16 16 -3 15 0 18 17 13 12 -3 21 -1 21 4 0 5 -9 9 -19 9
-11 0 -26 3 -35 6 -13 5 -16 -2 -16 -34z"/>
<path d="M2532 1525 c3 -49 5 -55 25 -55 28 0 53 10 53 21 0 6 -8 5 -19 -1
-30 -15 -31 -14 -31 40 0 38 -4 50 -15 50 -13 0 -15 -11 -13 -55z"/>
</g>
</svg>
